<?xml version="1.0" encoding="UTF-8"?> <svg xmlns="http://www.w3.org/2000/svg" xmlns:xlink="http://www.w3.org/1999/xlink" width="128px" height="128px" viewBox="0 0 128.0 128.0"> <defs> <clipPath id="i0"> <path d="M1440,0 L1440,8760 L0,8760 L0,0 L1440,0 Z"></path> </clipPath> <clipPath id="i1"> <path d="M6.15093452,0.00100836881 C6.81513492,-0.0121621794 7.47556433,0.103794849 8.09547599,0.342427519 C8.59158093,0.538802597 9.06825752,0.781014265 9.51930342,1.06591096 C9.93858822,1.36738979 10.3137514,1.72580817 10.6339569,2.13081354 C10.9053537,1.27814203 11.5264469,0.580763187 12.3425498,0.212363081 L13.0178508,0.212363081 C12.9608977,0.58629834 12.9120808,0.968362627 12.8876723,1.36668497 C12.8632639,1.76500731 12.8388554,2.07391035 12.8225831,2.47223269 C12.8063108,2.87055504 12.8225831,3.28513543 12.8225831,3.62655458 L12.8225831,4.92719896 C12.8225831,5.36616644 12.8225831,5.7401017 12.8876723,6.09777891 C12.9527616,6.45545611 12.9608977,6.91068164 13.0178508,7.25210079 L12.3750944,7.25210079 C11.9820159,5.49912298 11.1601661,3.8708285 9.98306436,2.51287783 C9.13664966,1.52041932 7.91088152,0.930205319 6.6065593,0.887072354 C5.69598363,0.860412872 4.81410732,1.20698027 4.16571227,1.84629758 C3.54058675,2.42146763 3.18627661,3.23271689 3.18937345,4.08178012 C3.18379817,4.78251769 3.48019577,5.4517893 4.00298913,5.9189403 C4.6103199,6.47796701 5.28547293,6.95862615 6.01261985,7.34964912 C6.82623553,7.7886166 7.63985121,8.23571311 8.64059849,8.69093864 C9.56298999,9.13050489 10.4404019,9.65866871 11.260441,10.26797 C12.051114,10.8567994 12.7314468,11.5805677 13.2700717,12.4059042 C13.8293272,13.2986397 14.112361,14.3364633 14.0836874,15.3892572 C14.0798364,16.0935692 13.9097992,16.787047 13.5873818,17.413385 C13.2452431,18.0901739 12.7756093,18.6946426 12.2042352,19.193642 C11.5912166,19.7372141 10.8820908,20.1617653 10.1132429,20.4455122 C9.26896843,20.7660597 8.37212514,20.9259715 7.46899191,20.9169958 C6.67446182,20.9231934 5.88384585,20.8052534 5.12577876,20.5674476 C4.56375795,20.4020993 4.03115445,20.1497457 3.54736435,19.8195771 C3.08978321,19.5367497 2.68505293,19.1763878 2.35134931,18.7546745 C2.22079718,19.2197361 1.97122821,19.6427911 1.62723135,19.9821577 C1.34976957,20.2925998 1.00838109,20.5394043 0.626484071,20.7056411 L0,20.7056411 C0,20.3317059 0.0569530974,19.9496416 0.0813615677,19.5513192 C0.105770038,19.1529969 0.138314665,18.8522229 0.170859292,18.4620296 C0.203403919,18.0718362 0.211540076,17.689772 0.211540076,17.2914496 C0.211540076,16.8931273 0.211540076,16.4379017 0.170859292,16.0151923 C0.130178508,15.5924829 0.113906195,15.2022896 0.0813615677,14.8771285 C0.0488169406,14.5519674 0,14.0642257 0,13.6659034 L0.642756385,13.6659034 C1.02499165,15.4326489 1.86693306,17.067388 3.08360342,18.4051264 C4.11481973,19.4627538 5.53568015,20.0505863 7.01336714,20.0309318 C8.10586828,20.0889956 9.17409075,19.6950111 9.96679204,18.9416422 C10.7106859,18.2300916 11.1210663,17.2389622 11.0977178,16.210289 C11.1021055,15.4599942 10.8096817,14.7383404 10.2841022,14.2024192 C9.70451144,13.5878112 9.0351984,13.0643408 8.2988799,12.649775 C7.50153654,12.1782914 6.64724008,11.7149368 5.73599052,11.2597113 C4.84440357,10.8171227 3.99004275,10.3033243 3.1812373,9.72332512 C2.40620864,9.1794441 1.73402827,8.50234788 1.19601505,7.72358438 C0.641320662,6.88911537 0.357245336,5.90423775 0.382399368,4.90281188 C0.385848256,4.26839822 0.533286225,3.64303078 0.813615677,3.07378072 C1.0970493,2.4741718 1.49504533,1.9356911 1.98522225,1.48862038 C2.51549161,1.01595975 3.13134078,0.648981426 3.79958521,0.407459738 C4.55130554,0.127263724 5.34868972,-0.0105711309 6.15093452,0.00100836881 Z"></path> </clipPath> <clipPath id="i2"> <path d="M10.6199081,0.683108063 C11.5723009,1.15271367 12.4065699,1.8306579 13.0607552,2.66659074 C13.817147,3.63921623 14.3905489,4.74094591 14.7530758,5.9182017 C15.1988806,7.38257368 15.4130017,8.90753581 15.387696,10.4379409 L3.84248956,10.3810377 C3.81652172,11.9139458 3.95288265,13.4452996 4.24929739,14.9495511 C4.45193581,15.9868592 4.81132541,16.9873345 5.31513393,17.9166461 C5.66577238,18.5782907 6.18142655,19.1382932 6.81218678,19.5424516 C7.33987081,19.8444224 7.93708134,20.0040993 8.54518817,20.0058062 C9.26396044,20.0110682 9.97599308,19.8671256 10.6361805,19.5830967 C11.2825083,19.3037857 11.8746219,18.9130579 12.3854542,18.4287748 C12.9118962,17.9304482 13.3397174,17.3375389 13.6465585,16.681034 C13.9777575,15.9790229 14.199983,15.2306966 14.3055872,14.4618095 L14.9483435,14.4618095 C14.8418363,15.3429556 14.5888504,16.2001558 14.1998171,16.998066 C13.834541,17.7580333 13.3357578,18.4463568 12.7271727,19.0303229 C12.1228057,19.5995194 11.4197695,20.0540265 10.6524528,20.3716124 C9.84743978,20.7021236 8.98425965,20.8679743 8.11397186,20.859354 C7.04908165,20.8617952 5.99752106,20.6227609 5.0385046,20.1602577 C4.04291027,19.6682075 3.16367103,18.9698663 2.45934291,18.1117428 C1.66707253,17.1461296 1.05773644,16.0442253 0.661252259,14.8601318 C0.202790774,13.4315795 -0.0197978865,11.937973 0.00222356105,10.4379409 C-0.0246554411,8.90684562 0.192305404,7.3812187 0.644979946,5.9182017 C1.00145652,4.74007214 1.57240555,3.63775574 2.3291644,2.66659074 C2.9870672,1.83431039 3.82044038,1.15709415 4.77001143,0.683108063 C6.61343256,-0.227702688 8.77648702,-0.227702688 10.6199081,0.683108063 Z M7.69089171,0.577430707 C7.23349275,0.587210538 6.7880523,0.725232412 6.40537894,0.975753048 C5.89664712,1.34886991 5.48621471,1.83984138 5.20936389,2.40646187 C4.77740258,3.27837967 4.46801863,4.20571823 4.28997818,5.16220215 C4.0203613,6.6024466 3.87068606,8.0625406 3.84248956,9.52748986 L11.5311577,9.52748986 C11.5070477,8.06229553 11.3573373,6.6018589 11.0836691,5.16220215 C10.9056286,4.20571823 10.5962447,3.27837967 10.1642834,2.40646187 C9.89258679,1.83652174 9.48118768,1.34439387 8.96826832,0.975753048 C8.58946947,0.723438209 8.14608719,0.585179008 7.69089171,0.577430707 Z"></path> </clipPath> <clipPath id="i3"> <path d="M7.04591176,0 L7.04591176,7.25922145 L11.9601505,7.25109243 L11.9601505,8.06399516 L7.07845639,8.06399516 L7.07845639,21.671987 C6.96536088,23.0005407 7.29425466,24.3292502 8.01411442,25.4519847 C8.47641768,26.1413913 9.2352469,26.5746281 10.0644259,26.6225647 C10.9984379,26.6341036 11.890565,26.2359694 12.505273,25.533275 C13.2413902,24.6349742 13.654011,23.5155758 13.6768795,22.3548253 L14.3196359,22.3548253 C14.2997378,23.7507741 13.7769055,25.0927851 12.8469915,26.134823 C12.0019578,27.0232763 10.8187435,27.5109246 9.59252883,27.4761126 C7.9800467,27.5520974 6.40684996,26.9645018 5.23968496,25.8503071 C4.14162319,24.7527105 3.55181681,23.2470757 3.61245361,21.6963741 L3.61245361,8.03960808 L0,8.03960808 L0,7.22670534 L3.62872592,7.22670534 L3.62872592,2.34928891 L7.04591176,0 Z"></path> </clipPath> <clipPath id="i4"> <path d="M7.03777561,0 L7.03777561,7.25922145 L11.9520143,7.21857632 L11.9520143,8.03147905 L7.07032023,8.03147905 L7.07032023,21.6394709 C6.94266615,22.9760983 7.26321317,24.3172127 7.98156979,25.4519847 C8.44387306,26.1413913 9.20270227,26.5746281 10.0318813,26.6225647 C10.9654388,26.6319135 11.8566911,26.2341696 12.4727283,25.533275 C13.2205739,24.6393121 13.6448181,23.519487 13.6768795,22.3548253 L14.3196359,22.3548253 C14.3006327,23.7479835 13.7841404,25.0885334 12.8632639,26.134823 C12.0182302,27.0232763 10.8350158,27.5109246 9.60880114,27.4761126 C7.99631902,27.5520974 6.42312227,26.9645018 5.25595727,25.8503071 C4.15789551,24.7527105 3.56808912,23.2470757 3.62872592,21.6963741 L3.62872592,8.03960808 L0,8.03960808 L0,7.22670534 L3.62872592,7.22670534 L3.62872592,2.34928891 L7.03777561,0 Z"></path> </clipPath> <clipPath id="i5"> <path d="M5.98007523,0 L5.98007523,28.793015 L8.54296461,29.4352082 L8.54296461,29.8579176 L0,29.8579176 L0,29.4352082 L2.56288938,28.793015 L2.56288938,1.06490259 L0,0.422709424 L0,0 L5.98007523,0 Z"></path> </clipPath> <clipPath id="i6"> <path d="M10.6194555,0.683108063 C11.5700526,1.15550404 12.4037489,1.83298283 13.0603026,2.66659074 C13.8109605,3.64164627 14.3813081,4.74280151 14.744487,5.9182017 C15.1933072,7.3820792 15.4101807,8.90709186 15.3872434,10.4379409 L3.85017309,10.3810377 C3.82201157,11.9136418 3.9556406,13.444942 4.24884477,14.9495511 C4.45379792,15.9873774 4.81595141,16.9879091 5.32281746,17.9166461 C5.66842465,18.579248 6.18177934,19.1397998 6.81173415,19.5424516 C7.33970339,19.8437302 7.93672766,20.0033572 8.54473554,20.0058062 C9.26357647,20.0117813 9.97575465,19.8678092 10.6357278,19.5830967 C11.2820556,19.3037857 11.8741693,18.9130579 12.3850015,18.4287748 C12.9114436,17.9304482 13.3392648,17.3375389 13.6461058,16.681034 C13.9773048,15.9790229 14.1995304,15.2306966 14.3051345,14.4618095 L14.9478909,14.4618095 C14.8413836,15.3429556 14.5883978,16.2001558 14.1993645,16.998066 C13.836883,17.7596928 13.3377554,18.4484914 12.7267201,19.0303229 C12.1252319,19.5992662 11.4249062,20.0538035 10.6601363,20.3716124 C9.85184485,20.7006703 8.98630433,20.8664432 8.11351923,20.859354 C7.05112123,20.8628395 6.00197386,20.6237212 5.04618813,20.1602577 C4.04951916,19.6662507 3.16800175,18.9683019 2.45889028,18.1117428 C1.66628328,17.1476796 1.05938201,16.0451896 0.66893579,14.8601318 C0.202952662,13.4331586 -0.0225052079,11.9387487 0.0017709352,10.4379409 C-0.0211663596,8.90709186 0.195707131,7.3820792 0.64452732,5.9182017 C1.00441121,4.74145683 1.57505217,3.63973524 2.32871177,2.66659074 C2.98661458,1.83431039 3.81998775,1.15709415 4.7695588,0.683108063 C6.61297993,-0.227702688 8.77603439,-0.227702688 10.6194555,0.683108063 Z M7.69043908,0.577430707 C7.24696732,0.594664061 6.81659037,0.732376426 6.4456071,0.975753048 C5.93756416,1.34742785 5.52947472,1.83894021 5.25772821,2.40646187 C4.81842341,3.27534036 4.50868296,4.20374745 4.33834249,5.16220215 C4.06467424,6.6018589 3.91496388,8.06229553 3.89085387,9.52748986 L11.5713859,9.52748986 C11.5472759,8.06229553 11.3975655,6.6018589 11.1238972,5.16220215 C10.9498082,4.20470271 10.6402438,3.2768233 10.2045115,2.40646187 C9.92142341,1.83180418 9.49564448,1.33922901 8.9678157,0.975753048 C8.58901684,0.723438209 8.14563456,0.585179008 7.69043908,0.577430707 Z"></path> </clipPath> <clipPath id="i7"> <path d="M11.3092579,0.000846719817 C11.6115833,-0.00264937072 11.9136723,0.0191037323 12.2123713,0.0658789389 C12.4890006,0.0658789389 12.7493577,0.15529824 12.97717,0.212201432 L13.6606072,0.423556144 L12.3750944,3.62639293 L11.8218358,3.32561892 C11.6220687,3.23132743 11.415344,3.15251477 11.2034879,3.08987713 C10.9605791,3.01787695 10.7083269,2.98226384 10.4549614,2.98419977 C9.75434502,2.97398499 9.06829792,3.18445387 8.49414767,3.5857478 C7.95983394,3.9496095 7.48504037,4.39382429 7.08659255,4.90265023 C6.62313865,5.48422941 6.24758879,6.13059513 5.97193907,6.82110069 L5.97193907,19.1934804 L8.53482845,19.8356735 L8.53482845,20.258383 L0,20.258383 L0,19.8356735 L2.55475323,19.1934804 L2.55475323,1.70794247 L0,1.06574931 L0,0.643039883 L5.97193907,0.643039883 L5.97193907,5.75619811 C6.31866244,4.76369945 6.76289406,3.80794077 7.29813262,2.9029095 C7.75500508,2.15727549 8.31671237,1.48107976 8.96604476,0.895039732 C9.60000908,0.302262575 10.4411982,-0.0187433953 11.3092579,0.000846719817 Z"></path> </clipPath> <clipPath id="i8"> <path d="M6.10211758,0.00113262294 C6.76638216,-0.0128719598 7.42697165,0.103113174 8.04665904,0.342551773 C8.54533113,0.538983505 9.02470343,0.781180945 9.47862264,1.06603521 C9.8954416,1.3676137 10.2679029,1.72606718 10.58514,2.1309378 C10.7161272,1.67920778 10.959672,1.26806158 11.2929856,0.935970772 C11.5704474,0.625528604 11.9118359,0.378724129 12.2937329,0.212487335 L12.9364893,0.212487335 C12.8795362,0.586422595 12.8388554,0.968486882 12.8063108,1.36680922 C12.7737661,1.76513157 12.7574938,2.07403461 12.7412215,2.47235695 C12.7249492,2.87067929 12.7412215,3.28525969 12.7412215,3.62667884 L12.7412215,4.92732322 C12.7412215,5.3662907 12.7819023,5.74022596 12.8063108,6.09790316 C12.8307192,6.45558037 12.8795362,6.9108059 12.9364893,7.25222505 L12.2937329,7.25222505 C11.9075169,5.49680074 11.0848533,3.86689393 9.90170279,2.51300208 C9.05844039,1.52096238 7.83528454,0.930583614 6.53333389,0.887196608 C5.62259134,0.859579934 4.7403514,1.20629024 4.09248686,1.84642184 C3.46266589,2.41894125 3.10497176,3.23117009 3.10801189,4.08190437 C3.1024366,4.78264194 3.39883421,5.45191356 3.92162756,5.91906456 C4.52442707,6.47999106 5.19714561,6.96086388 5.92312213,7.34977338 C6.73673781,7.78874086 7.59917042,8.23583736 8.55110076,8.6910629 C9.47606234,9.13061808 10.3561752,9.65876758 11.1790794,10.2680942 C11.9677335,10.8591803 12.6477045,11.5825636 13.1887101,12.4060284 C13.7479657,13.298764 14.0309994,14.3365876 14.0023258,15.3893815 C13.997412,16.0926026 13.8303666,16.7852336 13.5141564,17.4135093 C13.1786058,18.0947248 12.7144742,18.704744 12.1472821,19.2100243 C11.5329278,19.7517743 10.8241595,20.1761115 10.0562898,20.4618945 C9.23225203,20.7738534 8.35833589,20.9336096 7.47712807,20.9333781 C6.68167791,20.9493699 5.88853258,20.8424303 5.12577876,20.6163461 C4.56505287,20.4476234 4.03295012,20.1955071 3.54736435,19.8684755 C3.09143066,19.5834476 2.68705181,19.2233986 2.35134931,18.803573 C2.07995251,19.6562445 1.4588593,20.3536233 0.642756385,20.7220234 L0,20.7220234 C0,20.3480882 0.0569530974,19.9660239 0.0894977245,19.5677015 C0.122042352,19.1693792 0.146450822,18.8686052 0.170859292,18.4784119 C0.195267762,18.0882186 0.219676233,17.7061543 0.219676233,17.3078319 C0.219676233,16.9095096 0.219676233,16.454284 0.170859292,16.0315746 C0.122042352,15.6088652 0.113906195,15.2186719 0.0894977245,14.8772527 C0.0650892542,14.5358336 0.0325446271,14.06435 0,13.6822857 L0.642756385,13.6822857 C1.02535631,15.4489006 1.86725138,17.0835498 3.08360342,18.4215087 C4.11176514,19.4786941 5.52998722,20.0666523 7.00523098,20.0473142 C8.09115497,20.0904645 9.14812549,19.6915144 9.93424742,18.9417664 C10.6781413,18.2302159 11.0885217,17.2390865 11.0651732,16.2104132 C11.0652117,15.4609581 10.7734282,14.7408845 10.2515575,14.2025435 C9.67031304,13.5897489 9.00128889,13.0665045 8.26633528,12.6498992 C7.46899191,12.1784156 6.61469545,11.7150611 5.7034459,11.2598355 C4.81025369,10.8154528 3.95332861,10.3017482 3.14055651,9.72344937 C2.36739503,9.17736095 1.69557199,8.50062468 1.15533426,7.72370864 C0.600639879,6.88923963 0.316564552,5.90436201 0.341718584,4.90293614 C0.342066894,4.26908878 0.48674468,3.64362768 0.764798736,3.07390497 C1.04823407,2.47215579 1.44936179,1.93318086 1.94454147,1.48874463 C2.47360126,1.01443979 3.08978689,0.647260967 3.75890443,0.407583992 C4.5076171,0.126718576 5.30246563,-0.011155042 6.10211758,0.00113262294 Z"></path> </clipPath> <clipPath id="i9"> <path d="M39.3313281,7.61429646e-06 C61.0204799,0.035851788 78.5902979,17.601182 78.6126929,39.2713465 C78.6126929,55.1573359 69.0335025,69.4786288 54.3429448,75.555653 C39.6523871,81.6326773 22.7443597,78.2683167 11.5049097,67.0317375 C0.265459596,55.7951583 -3.09134802,38.8998601 3.00013028,24.2259529 C9.09160857,9.55204575 23.4314092,-0.00984979134 39.3313281,7.61429646e-06 Z M70.0941368,61.1221721 C58.0891074,62.8525657 46.9694685,68.4260536 38.4038062,77.0062916 L39.3313281,77.0062916 C51.5427295,76.9837255 62.9937408,71.0786073 70.0860006,61.1465592 Z M75.418,50.4 L74.7966245,50.42589 C55.9771867,51.2843964 38.4102972,60.1439198 26.5412896,74.7870672 C29.6875917,75.9165817 32.9713463,76.6192363 36.3046777,76.8762272 C45.5445571,67.1637843 57.9026301,60.9987926 71.2250626,59.4557215 C73.0203873,56.6308105 74.4321549,53.5801282 75.4233195,50.383727 L75.418,50.4 Z M77.05,40.051 L76.3791493,40.0598728 C53.1632293,40.4358283 31.3843889,51.4287181 17.3067517,69.9096507 C19.7066815,71.6392772 22.3041089,73.0773895 25.0442368,74.1936482 C37.4101016,58.6519104 56.007504,49.3509469 75.8708081,48.7741795 C76.6018691,45.922361 76.9977874,42.9951332 77.0505508,40.0517332 L77.05,40.051 Z M8.60106394,61.1140431 C10.7173088,64.0828465 13.2490548,66.7328278 16.1188728,68.9829416 C17.3881132,67.3002329 18.7631237,65.6175243 20.1869512,64.048622 C16.4411049,62.6593858 12.5569287,61.6755663 8.60106394,61.1140431 Z M3.22306431,50.399985 C4.21756611,53.582305 5.62924194,56.6191219 7.42132121,59.4313344 C12.1597864,59.988417 16.8094096,61.1381972 21.2609239,62.853655 C23.4505741,60.5335009 25.7790795,58.3481983 28.2336102,56.3097879 L28.274291,56.2854008 C20.3987022,52.6786409 11.8821134,50.6777941 3.22306431,50.399985 Z M1.57956065,40.019217 C1.63370744,42.9747923 2.03790456,45.9135682 2.78371185,48.7741795 C12.0735829,49.0398427 21.2063214,51.2352054 29.6004846,55.2204983 C32.1874425,53.1684596 34.9052299,51.2866833 37.7366413,49.5870823 C26.6645719,43.452179 14.2394475,40.16425 1.57956065,40.019217 Z M39.32726,1.34230504 C18.6891732,1.34230504 1.87436123,17.897566 1.57142449,38.515347 C10.4810917,38.5997495 19.3099275,40.2138347 27.6722154,43.2870861 L27.6722154,29.4270944 C24.3628246,29.0570144 21.8667436,26.2509455 21.8874079,22.9238725 L21.8874079,17.7050369 C21.8874079,14.0909589 24.8197665,11.1611698 28.4370141,11.1611698 C32.0542618,11.1611698 34.9866203,14.0909589 34.9866203,17.7050369 L34.9866203,22.9157434 C35.0072846,26.2428165 32.5112037,29.0488854 29.2018129,29.4189653 L29.2018129,43.8967631 C32.6557618,45.2485747 36.0083091,46.8459554 39.2336942,48.6766312 C42.505914,46.8054179 45.9104447,45.1752833 49.4201624,43.7992148 L49.4201624,29.4270944 C46.1107717,29.0570144 43.6146907,26.2509455 43.635355,22.9238725 L43.635355,11.9334274 C43.6759524,11.5396415 44.0080052,11.2402975 44.4042218,11.2402975 C44.8004384,11.2402975 45.1324912,11.5396415 45.1730886,11.9334274 L45.1730886,22.9238725 C45.1796627,25.3906915 46.9806116,27.4865103 49.4201624,27.8663211 L49.4201624,11.9334274 C49.4201624,11.5114109 49.7625745,11.1692989 50.1849612,11.1692989 C50.6073479,11.1692989 50.9497599,11.5114109 50.9497599,11.9334274 L50.9497599,27.8663211 C53.3893108,27.4865103 55.1902597,25.3906915 55.1968338,22.9238725 L55.1968338,11.9334274 C55.2374312,11.5396415 55.569484,11.2402975 55.9657006,11.2402975 C56.3619172,11.2402975 56.6939699,11.5396415 56.7345674,11.9334274 L56.7345674,22.8994854 C56.7552317,26.2265584 54.2591507,29.0326273 50.9497599,29.4027073 L50.9497599,43.2220538 C59.328467,40.1755603 68.1670727,38.5836959 77.0830955,38.515347 C76.7801587,17.897566 59.9653467,1.34230504 39.32726,1.34230504 Z M28.4370141,12.697556 C25.6690334,12.697556 23.4251416,14.9394816 23.4251416,17.7050369 L23.4251416,22.9238725 C23.4251416,25.6894278 25.6690334,27.9313533 28.4370141,27.9313533 C31.2049949,27.9313533 33.4488867,25.6894278 33.4488867,22.9238725 L33.4488867,17.7050369 C33.4488867,14.9394816 31.2049949,12.697556 28.4370141,12.697556 Z"></path> </clipPath> </defs> <g transform="translate(-657.0 -32.0)"> <g clip-path="url(#i0)"> <g transform="translate(657.0 32.00000000000001)"> <g transform="translate(0.0 107.05829750972612)"> <g clip-path="url(#i1)"> <polygon points="0,8.30889177e-15 14.0856691,8.30889177e-15 14.0856691,20.9173537 0,20.9173537 0,8.30889177e-15" stroke="none" fill="#FFF8DA"></polygon> </g> </g> <g transform="translate(17.929865958685696 107.14032638997173)"> <g clip-path="url(#i2)"> <polygon points="4.33680869e-19,0 15.3897031,0 15.3897031,20.8596736 4.33680869e-19,20.8596736 4.33680869e-19,0" stroke="none" fill="#FFF8DA"></polygon> </g> </g> <g transform="translate(35.86417903947131 100.46666467067189)"> <g clip-path="url(#i3)"> <polygon points="0,0 14.3196359,0 14.3196359,27.4826641 0,27.4826641 0,0" stroke="none" fill="#FFF8DA"></polygon> </g> </g> <g transform="translate(50.5987589488368 100.49918078020505)"> <g clip-path="url(#i4)"> <polygon points="0,0 14.3196359,0 14.3196359,27.4826641 0,27.4826641 0,0" stroke="none" fill="#FFF8DA"></polygon> </g> </g> <g transform="translate(67.03379562300506 97.47518259361459)"> <g clip-path="url(#i5)"> <polygon points="0,0 8.54296461,0 8.54296461,29.8579176 0,29.8579176 0,0" stroke="none" fill="#FFF8DA"></polygon> </g> </g> <g transform="translate(78.98403898203651 107.14032638997173)"> <g clip-path="url(#i6)"> <polygon points="-1.11022302e-16,0 15.3888897,0 15.3888897,20.8595722 -1.11022302e-16,20.8595722 -1.11022302e-16,0" stroke="none" fill="#FFF8DA"></polygon> </g> </g> <g transform="translate(97.99187213053392 107.07471721348361)"> <g clip-path="url(#i7)"> <polygon points="0,-9.65894031e-15 13.6606072,-9.65894031e-15 13.6606072,20.258383 0,20.258383 0,-9.65894031e-15" stroke="none" fill="#FFF8DA"></polygon> </g> </g> <g transform="translate(113.9956924959242 107.04191520082782)"> <g clip-path="url(#i8)"> <polygon points="0,-6.89053849e-15 14.0043075,-6.89053849e-15 14.0043075,20.9349394 0,20.9349394 0,-6.89053849e-15" stroke="none" fill="#FFF8DA"></polygon> </g> </g> <g transform="translate(24.716498033658347 0.0)"> <g clip-path="url(#i9)"> <polygon points="0,1.03509584e-13 78.6126929,1.03509584e-13 78.6126929,78.5438209 0,78.5438209 0,1.03509584e-13" stroke="none" fill="#FFF8DA"></polygon> </g> </g> </g> </g> </g> </svg> 