<?xml version="1.0" encoding="utf-8"?>
<!-- Generator: Adobe Illustrator 25.4.1, SVG Export Plug-In . SVG Version: 6.00 Build 0)  -->
<svg version="1.1" id="Layer_1" xmlns="http://www.w3.org/2000/svg" xmlns:xlink="http://www.w3.org/1999/xlink" x="0px" y="0px"
	 viewBox="0 0 636 287.5" style="enable-background:new 0 0 636 287.5;" xml:space="preserve">
<style type="text/css">
	.st0{fill:#FFFFFF;}
</style>
<path class="st0" d="M592.5,71.3l-36.1,98.3l-42.5-98.3h-44.6l42.1,90.2c-8.2,21.9-21.2,24.1-34.5,24.1c-15.8,0-26.7-14.6-26.7-32.4
	V0h-66.4v35.5h24.6v125.3c-0.4,26.9-11.8,28.6-17.7,28.6c-5.6,0-14.9-3-14.9-17.2v-39.3c0-47.9-27.9-65.8-71.6-65.8
	c-22.4,0-44.6,5.8-56.4,9.7v36.4c13.6-5.5,31.5-10.9,51.6-10.9c22.8,0,34.3,10,34.3,24.6v5.2c-11.3-2.6-22.9-3.9-34.6-3.9
	c-25.9,0-55.2,9.1-62.4,37.1c-8.4,17.1-25.6,20.5-35.3,20.5c-15.8,0-26.9-13.3-26.9-28.5v-50.4h46.1V71.3h-46.1V34.4l-41.9,0.1v36.9
	H108v35.5h24.6v46.4c0.2,22.8-19.5,34.6-33.8,34.6c-19.5,0-29.4-16.6-29.4-31.8V71.3H0v35.5h27.4v57.4c0,36.1,27.9,56.9,56.1,56.9
	c14.2,0,38.6,0,57.6-25.9c11.1,16.9,31.3,25.9,50.3,25.9c13.5,0,32.8-2.2,50.9-19.9c9.1,12.3,25.5,19.3,43.6,19.9
	c21.5,0.6,38.2-6.7,52.5-17.9c6.1,10.9,19.4,17.9,41.3,17.9c21.6,0,34.2-5.2,43.2-20.3c11.4,12.9,28.4,20.3,46.4,20.3
	c20.1,0,39.4-3.7,56.9-27.7l11.9,25.6l-0.3,0.6c-7.9,21.5-19.4,31.8-34.6,31.8c-5.8-0.1-11.6-0.8-17.3-2.1v34.9
	c7.6,1.8,15.2,3.3,22.7,3.3c23.7,0,46.4-12.4,62.8-53.1L636,71.2L592.5,71.3z M333.6,179.3c-9.7,8.5-20.9,11.8-32.8,11.8
	c-12.7,0-22.8-7-22.8-17.9c0-14.9,15.2-20,30.6-20c8.8,0,18.5,1.8,24.9,3.3L333.6,179.3L333.6,179.3z M48.3,54.4c5,0,9.8-1.5,14-4.2
	c4.1-2.8,7.4-6.7,9.3-11.3S74,29.3,73,24.4s-3.4-9.4-6.9-12.9s-8-5.9-12.9-6.9S43.3,4.1,38.7,6s-8.5,5.1-11.3,9.3
	c-2.8,4.1-4.2,9-4.2,14c0,3.3,0.7,6.6,1.9,9.6c1.3,3,3.1,5.8,5.4,8.2c2.3,2.3,5.1,4.2,8.2,5.4C41.8,53.8,45,54.4,48.3,54.4
	L48.3,54.4z"/>
</svg>
